<?xml version="1.0" encoding="UTF-8"?>
<svg id="Layer_1" data-name="Layer 1" xmlns="http://www.w3.org/2000/svg" xmlns:xlink="http://www.w3.org/1999/xlink" viewBox="93 57 501 190">
  <defs>
    <style>
      .cls-1 {
        fill: url(#linear-gradient-2);
      }
      .cls-1, .cls-2 {
        opacity: .28;
      }
      .cls-2 {
        fill: url(#linear-gradient);
      }
    </style>
    <linearGradient id="linear-gradient" x1="566.9" y1="183.5" x2="562.12" y2="230" gradientUnits="userSpaceOnUse">
      <stop offset="0" stop-color="#fff"/>
      <stop offset=".21" stop-color="#fff" stop-opacity=".76"/>
      <stop offset=".59" stop-color="#fff" stop-opacity=".36"/>
      <stop offset=".85" stop-color="#fff" stop-opacity=".1"/>
      <stop offset=".97" stop-color="#fff" stop-opacity="0"/>
    </linearGradient>
    <linearGradient id="linear-gradient-2" x1="466.98" y1="161.42" x2="523.71" y2="161.42" gradientUnits="userSpaceOnUse">
      <stop offset="0" stop-color="#fff"/>
      <stop offset=".22" stop-color="#ececec" stop-opacity=".76"/>
      <stop offset=".59" stop-color="#cecece" stop-opacity=".36"/>
      <stop offset=".85" stop-color="#bababa" stop-opacity=".1"/>
      <stop offset=".98" stop-color="#b3b3b3" stop-opacity="0"/>
    </linearGradient>
  </defs>
  <path d="M103.33,195.76h23.76c1.98,14.6,13.61,22.52,32.67,22.52,16.83,0,25.99-6.19,25.99-17.08,0-7.92-3.96-13.11-18.81-16.83l-20.29-4.7c-25.49-6.19-37.62-18.56-37.62-36.88,0-22.77,18.07-36.63,47.76-36.63s48.51,13.86,50.73,37.62h-23.76c-1.98-12.13-11.63-18.56-27.72-18.56s-23.51,5.69-23.51,15.34c0,7.92,5.44,13.11,19.8,16.58l20.79,5.2c24.01,6.19,36.38,20.04,36.38,38.61,0,22.77-18.56,36.38-50.24,36.38s-53.46-15.1-55.93-41.58Z"/>
  <path d="M227.8,171.51c0-38.85,25.98-65.34,64.1-65.34s59.89,24.5,59.89,62.37c0,3.96-.25,7.17-.74,10.89h-97.01c2.47,23.76,16.58,37.86,38.61,37.86,14.6,0,26.23-6.19,31.43-18.07h24.25c-8.41,23.76-28.71,38.11-56.18,38.11-38.11,0-64.34-27.22-64.34-65.83ZM254.53,160.13h71.52c-2.23-22.03-14.35-33.91-34.15-33.91s-33.9,12.62-37.37,33.91Z"/>
  <path d="M386.92,196.75v-67.56h-25.24v-20.54h25.24v-28.95l25.49-9.65v38.61h35.88v20.54h-35.88v67.81c0,13.36,6.43,19.3,22.03,19.3,5.94,0,10.64-.99,13.86-2.47v20.79c-3.71,1.49-10.4,2.72-18.81,2.72-29.7,0-42.57-13.86-42.57-40.59Z"/>
  <polygon points="584.18 185.5 552.37 153.69 539.01 233.95 584.18 233.95 584.18 185.5"/>
  <polygon class="cls-2" points="539.93 230.63 548.14 179.83 584.18 185.5 584.18 230.63 539.93 230.63"/>
  <polygon points="552.37 153.69 584.18 185.5 466.98 185.5 466.98 137.35 552.37 153.69"/>
  <polygon class="cls-1" points="523.71 185.5 466.98 185.5 466.98 137.35 523.71 148.21 523.71 185.5"/>
  <polygon points="561.9 67.54 466.98 137.35 466.98 163.7 466.98 185.5 561.9 106.85 561.9 67.54"/>
</svg>